<svg width="24" height="24" viewBox="0 0 30 30" fill="none" xmlns="http://www.w3.org/2000/svg">
<path d="M12.6144 17.3538C12.6144 18.5816 11.7238 18.9696 10.6296 18.9696H7.76049V15.6044H10.6868C11.8701 15.6107 12.6144 16.1006 12.6144 17.3538ZM12.1246 12.1182C12.1246 10.9922 11.253 10.725 10.286 10.725H7.76685V13.575H10.4833C11.4439 13.575 12.1246 13.1551 12.1246 12.1182ZM20.541 13.5941C19.3768 13.5941 18.6007 14.3193 18.5243 15.4835H22.4812C22.3731 14.3066 21.7624 13.5941 20.541 13.5941ZM29.25 3.80357V26.1964C29.25 27.8823 27.8823 29.25 26.1964 29.25H3.80357C2.11775 29.25 0.75 27.8823 0.75 26.1964V3.80357C0.75 2.11775 2.11775 0.75 3.80357 0.75H26.1964C27.8823 0.75 29.25 2.11775 29.25 3.80357ZM18.0345 10.4833H22.9838V9.28092H18.0345V10.4833ZM15.299 17.5001C15.299 15.967 14.5738 14.6437 13.0724 14.2175C14.1666 13.6959 14.7392 13.0915 14.7392 11.8637C14.7392 9.43359 12.9261 8.84196 10.8331 8.84196H5.07589V21.0563H10.9985C13.2188 21.0435 15.299 19.9811 15.299 17.5001ZM24.9241 16.5586C24.9241 13.944 23.391 11.7619 20.6237 11.7619C17.9263 11.7619 16.1006 13.7849 16.1006 16.4441C16.1006 19.1987 17.8373 21.0881 20.6237 21.0881C22.7357 21.0881 24.1035 20.1402 24.7651 18.1108H22.6212C22.3858 18.8679 21.4379 19.2623 20.7 19.2623C19.275 19.2623 18.5307 18.4289 18.5307 17.0166H24.905C24.9114 16.8703 24.9241 16.7113 24.9241 16.5586Z" fill="#009688"/>
</svg>
