<svg width="28" height="29" viewBox="0 0 28 29" fill="none" xmlns="http://www.w3.org/2000/svg">
<path d="M8.22735 5.63733L8.45455 5.48941V5.21831V3.74707H19.8636V5.21831V5.48941L20.0908 5.63733L26.0682 9.52883V25.4971H2.25V9.52883L8.22735 5.63733ZM10.0227 4.81525H9.52273V5.31525V13.2648V13.5365L9.7507 13.6843L13.8871 16.3665L14.1591 16.5429L14.4311 16.3665L18.5675 13.6843L18.7955 13.5365V13.2648V5.31525V4.81525H18.2955H10.0227ZM8.45455 7.67427V6.75025L7.68103 7.25571L4.41718 9.38853L3.77176 9.81029L4.42011 10.2275L7.68396 12.328L8.45455 12.824V11.9076V7.67427ZM20.6372 7.25571L19.8636 6.75025V7.67427V11.9076V12.824L20.6342 12.328L23.8981 10.2275L24.5464 9.81029L23.901 9.38853L20.6372 7.25571ZM4.08975 11.2939L3.31818 10.7948V11.7137V23.9289V24.4289H3.81818H24.5H25V23.9289V11.7137V10.7948L24.2284 11.2939L14.1591 17.8075L4.08975 11.2939ZM16.7614 8.95162H11.5568V7.88343H16.7614V8.95162ZM16.7614 12.0539H11.5568V10.9857H16.7614V12.0539Z" stroke="#009688"/>
</svg>
