<svg width="28" height="29" viewBox="0 0 28 29" fill="none" xmlns="http://www.w3.org/2000/svg">
<path d="M10.0625 7.68457H10.5625V7.18457V2.7627H21.375V7.18457V7.68457H21.875H25.3125V22.4346H10.0625H9.5625V22.9346V23.9189C9.5625 24.5781 9.32394 25.1367 8.82311 25.6203L8.8168 25.6264L8.81071 25.6327C8.32715 26.1335 7.76849 26.3721 7.10938 26.3721C6.4496 26.3721 5.87747 26.1328 5.37113 25.6264C4.88907 25.1444 4.65625 24.5839 4.65625 23.9189V22.9346V22.4346H4.15625H2.6875V5.71582H7.59375V7.18457V7.68457H8.09375H10.0625ZM12.0312 3.73145H11.5312V4.23145V9.15332V9.65332H12.0312H19.9062H20.4062V9.15332V4.23145V3.73145H19.9062H12.0312ZM4.15625 6.68457H3.65625V7.18457V20.9658V21.4658H4.15625H6.125H6.625V20.9658V7.18457V6.68457H6.125H4.15625ZM8.09375 8.65332H7.59375V9.15332V20.9658V21.4658H8.09375H23.8438H24.3438V20.9658V9.15332V8.65332H23.8438H21.875H21.375V9.15332V10.6221H10.5625V9.15332V8.65332H10.0625H8.09375ZM6.125 22.4346H5.625V22.9346V23.9189C5.625 24.3137 5.76618 24.6676 6.03021 24.9609L6.04781 24.9805L6.06737 24.9981C6.36074 25.2621 6.71459 25.4033 7.10938 25.4033C7.50541 25.4033 7.85912 25.2606 8.13969 24.98C8.42945 24.6903 8.59375 24.3305 8.59375 23.9189V22.9346V22.4346H8.09375H6.125ZM12.5156 14.5596H11.5469V13.5908H12.5156V14.5596ZM16.4531 14.5596H15.4844V13.5908H16.4531V14.5596ZM20.3906 14.5596H19.4219V13.5908H20.3906V14.5596ZM12.5156 18.4971H11.5469V17.5283H12.5156V18.4971ZM16.4531 18.4971H15.4844V17.5283H16.4531V18.4971ZM20.3906 18.4971H19.4219V17.5283H20.3906V18.4971Z" stroke="#009688"/>
</svg>
