<svg width="24" height="24" viewBox="0 0 30 29" fill="none" xmlns="http://www.w3.org/2000/svg">
<path d="M15 0.75C13.1287 0.75 11.2757 1.11859 9.54676 1.83472C7.81787 2.55085 6.24696 3.60049 4.92373 4.92373C2.25133 7.59612 0.75 11.2207 0.75 15C0.75 21.2985 4.83975 26.6423 10.497 28.5375C11.2095 28.6515 11.4375 28.2098 11.4375 27.825V25.4167C7.49025 26.2718 6.6495 23.5072 6.6495 23.5072C5.994 21.8542 5.06775 21.4125 5.06775 21.4125C3.771 20.529 5.1675 20.5575 5.1675 20.5575C6.5925 20.6573 7.34775 22.0253 7.34775 22.0253C8.5875 24.1913 10.6823 23.55 11.4945 23.208C11.6227 22.2818 11.9932 21.6548 12.3923 21.2985C9.22875 20.9423 5.9085 19.7168 5.9085 14.2875C5.9085 12.7058 6.45 11.4375 7.37625 10.4258C7.23375 10.0695 6.735 8.5875 7.51875 6.66375C7.51875 6.66375 8.71575 6.279 11.4375 8.11725C12.5632 7.80375 13.7887 7.647 15 7.647C16.2112 7.647 17.4367 7.80375 18.5625 8.11725C21.2842 6.279 22.4812 6.66375 22.4812 6.66375C23.265 8.5875 22.7663 10.0695 22.6238 10.4258C23.55 11.4375 24.0915 12.7058 24.0915 14.2875C24.0915 19.731 20.757 20.928 17.5793 21.2843C18.0923 21.726 18.5625 22.5953 18.5625 23.9205V27.825C18.5625 28.2098 18.7905 28.6658 19.5173 28.5375C25.1745 26.628 29.25 21.2985 29.25 15C29.25 13.1287 28.8814 11.2757 28.1653 9.54676C27.4492 7.81787 26.3995 6.24696 25.0763 4.92373C23.753 3.60049 22.1821 2.55085 20.4532 1.83472C18.7243 1.11859 16.8713 0.75 15 0.75Z" fill="#009688"/>
</svg>
