<svg width="12" height="11" viewBox="0 0 12 11" fill="none" xmlns="http://www.w3.org/2000/svg">
<path d="M10.7454 4.19426C10.7348 4.23221 10.7154 4.26698 10.6889 4.29584L10.6633 4.31818L8.54927 6.16318L8.3235 6.36022L8.39082 6.65222L9.0241 9.3991L9.0244 9.4004C9.03557 9.44827 9.03238 9.49836 9.01524 9.54443C8.99809 9.59049 8.96775 9.63048 8.928 9.65939C8.88825 9.68831 8.84085 9.70486 8.79175 9.70698C8.74282 9.7091 8.69435 9.6968 8.65236 9.67161C8.6522 9.67152 8.65205 9.67143 8.6519 9.67134L6.25734 8.21895L5.99776 8.06151L5.73833 8.2192L3.34933 9.67134C3.34911 9.67148 3.34888 9.67161 3.34865 9.67175C3.30671 9.69684 3.25832 9.7091 3.20948 9.70698C3.16038 9.70486 3.11299 9.68831 3.07323 9.65939C3.03349 9.63048 3.00314 9.5905 2.98599 9.54443C2.96885 9.49837 2.96566 9.44827 2.97683 9.4004L2.97714 9.39905L3.60949 6.65499L3.67672 6.36322L3.45127 6.16621L1.33674 4.3184L1.33674 4.31839L1.33428 4.31627C1.297 4.28411 1.27004 4.24167 1.25679 4.19426C1.24354 4.14684 1.24457 4.09657 1.25978 4.04975C1.27498 4.00293 1.30367 3.96163 1.34224 3.93105C1.38082 3.90047 1.42757 3.88195 1.47662 3.87783L1.4779 3.87772L4.26509 3.63631L4.5662 3.61023L4.68306 3.3315L5.77103 0.736502L5.77135 0.735716C5.79017 0.690614 5.82192 0.652086 5.86259 0.624987C5.90326 0.597887 5.95104 0.583427 5.99991 0.583427C6.04879 0.583427 6.09657 0.597888 6.13724 0.624986L6.41233 0.212116L6.13724 0.624987C6.17791 0.652086 6.20965 0.690613 6.22847 0.735717L6.22901 0.736998L7.32026 3.332L7.43727 3.61026L7.738 3.63631L10.5243 3.87772L10.5255 3.87783C10.5746 3.88195 10.6213 3.90046 10.6599 3.93105C10.6985 3.96163 10.7272 4.00293 10.7424 4.04975L11.218 3.89535L10.7424 4.04975C10.7576 4.09657 10.7586 4.14684 10.7454 4.19426L10.7908 4.20695L10.7454 4.19426Z" fill="white" stroke="#8E44AD"/>
</svg>
