<svg width="12" height="13" viewBox="0 0 12 13" fill="none" xmlns="http://www.w3.org/2000/svg">
<g id="ph:star-fill">
<path id="Vector" d="M10.9926 5.6949L8.87853 7.5399L9.51181 10.2868C9.54532 10.4304 9.53576 10.5807 9.48432 10.7189C9.43288 10.857 9.34184 10.977 9.22259 11.0637C9.10334 11.1505 8.96117 11.2001 8.81385 11.2065C8.66653 11.2129 8.5206 11.1757 8.39431 11.0996L5.99853 9.64646L3.6079 11.0996C3.48161 11.1757 3.33568 11.2129 3.18836 11.2065C3.04104 11.2001 2.89887 11.1505 2.77962 11.0637C2.66037 10.977 2.56933 10.857 2.51789 10.7189C2.46645 10.5807 2.45689 10.4304 2.4904 10.2868L3.12274 7.54271L1.00821 5.6949C0.896374 5.59844 0.815502 5.47111 0.77574 5.32887C0.735977 5.18664 0.739095 5.03583 0.7847 4.89535C0.830306 4.75488 0.91637 4.631 1.0321 4.53925C1.14783 4.44749 1.28807 4.39195 1.43524 4.37958L4.22243 4.13818L5.3104 1.54318C5.36722 1.40701 5.46305 1.2907 5.58583 1.20889C5.70862 1.12708 5.85286 1.08343 6.0004 1.08343C6.14794 1.08343 6.29219 1.12708 6.41497 1.20889C6.53775 1.2907 6.63359 1.40701 6.6904 1.54318L7.78165 4.13818L10.5679 4.37958C10.7151 4.39195 10.8553 4.44749 10.971 4.53925C11.0868 4.631 11.1728 4.75488 11.2184 4.89535C11.2641 5.03583 11.2672 5.18664 11.2274 5.32887C11.1876 5.47111 11.1068 5.59844 10.9949 5.6949H10.9926Z" fill="#FFA726"/>
</g>
</svg>
