<svg width="130" height="25" viewBox="0 0 130 25" fill="none" xmlns="http://www.w3.org/2000/svg">
<g id="Group">
<g id="Group_2">
<path id="Vector" d="M113.956 0.311035C113.452 0.311035 113.153 0.723533 113.153 1.11728V7.06104H128.823L121.688 0.311035H113.956Z" fill="black" fill-opacity="0.54"/>
<path id="Vector_2" d="M129.327 8.87973C129.327 8.37348 128.916 8.07349 128.524 8.07349H122.603V23.8047L129.327 16.6422V8.87973Z" fill="black" fill-opacity="0.54"/>
<path id="Vector_3" d="M120.792 24.311C121.296 24.311 121.595 23.8985 121.595 23.5048V17.561H105.925L113.059 24.311H120.792Z" fill="black" fill-opacity="0.54"/>
<path id="Vector_4" d="M105.42 15.7424C105.42 16.2486 105.831 16.5486 106.224 16.5486H112.144V0.911133L105.42 8.07364V15.7424Z" fill="black" fill-opacity="0.54"/>
</g>
<path id="Vector_5" d="M33.7949 3.14233V10.3986H23.7654V3.14233H20.1421V21.4798H23.7654V13.6236H33.7949V21.4798H37.5116V3.14233H33.7949Z" fill="black" fill-opacity="0.54"/>
<path id="Vector_6" d="M82.5225 3.14233V21.3861H98.5846L96.5861 18.2548H86.2392V13.6236H96.1752V10.4923H86.2392V6.36733H96.4741L98.4912 3.14233H82.5225Z" fill="black" fill-opacity="0.54"/>
<g id="Group_3">
<path id="Vector_7" d="M6.48917 3.14233C2.67909 3.14233 0.755371 5.46733 0.755371 8.89858V15.7611C0.755371 19.6986 3.25807 21.5173 6.48917 21.5173H17.9381L15.8276 18.0861H7.18021C5.36856 18.0861 4.56545 17.3736 4.56545 15.3673V9.21733C4.56545 7.19233 5.27517 6.38608 7.2736 6.38608H15.921L17.9381 3.16109L6.48917 3.14233Z" fill="black" fill-opacity="0.54"/>
<path id="Vector_8" d="M66.442 3.14233C64.2382 3.14233 62.0156 4.45484 62.0156 7.88609V8.78609C62.0156 12.3111 64.2195 13.7361 66.33 13.7361H73.9688C74.7719 13.7361 75.3696 13.8298 75.3696 15.2548V16.7736C75.3696 17.9923 74.7719 18.2923 73.8567 18.2923H63.8086L61.7915 21.5173H74.1556C77.1625 21.5173 79.1796 19.9986 79.1796 16.5673V15.3486C79.1796 12.0298 77.2746 10.5111 74.361 10.5111H67.021C66.2179 10.5111 65.6203 10.3048 65.6203 9.10484V7.69859C65.6203 6.68609 66.0311 6.29233 66.9276 6.29233H76.4715L78.4886 3.16109H66.442V3.14233Z" fill="black" fill-opacity="0.54"/>
</g>
<path id="Vector_9" d="M48.1571 3.14233L39.5098 21.3861H43.6374L45.3369 17.6548H54.6754L56.375 21.3861H60.5025L51.7618 3.14233H48.1571ZM49.8754 6.96733L53.1812 14.5236H46.5509L49.8754 6.96733Z" fill="black" fill-opacity="0.54"/>
</g>
</svg>
