<svg width="100" height="25" viewBox="0 0 100 25" fill="none" xmlns="http://www.w3.org/2000/svg">
<path id="Vector" fill-rule="evenodd" clip-rule="evenodd" d="M97.997 16.9309C97.6924 16.7105 97.451 16.679 97.2515 17.0988C93.8294 24.4994 88.0663 20.8044 88.6437 21.1298C89.9243 20.542 93.2836 17.8547 92.7796 14.1281C92.4753 11.8502 90.5227 10.8424 88.4443 11.2098C84.8227 11.8397 83.5 15.7447 84.1718 19.1983C84.2872 19.7967 84.4972 20.2796 84.7178 20.7624C80.6342 24.0901 79.0072 17.7917 78.8181 17.0359C78.8078 16.9939 81.9779 14.359 82.8597 8.07113C83.7835 1.48927 81.6839 0.282072 79.5321 0.324062C75.5536 0.397543 74.4827 8.70096 75.9208 15.6187C75.8054 15.6502 75.2385 15.9651 74.3359 15.9966C73.685 13.9496 70.9031 12.1546 70.1788 12.8474C68.3627 14.5795 70.6197 17.9596 72.2155 18.2221C71.26 24.1111 65.2766 22.652 66.3892 15.2723C68.3313 11.6612 69.8219 6.27607 69.5491 3.03237C69.4545 1.88817 68.6042 0.345057 66.6832 0.418538C62.9882 0.565502 62.5893 8.86891 63.0196 14.7684C62.9987 14.6215 62.7887 15.4823 61.277 15.9126C60.9201 13.9287 57.7185 11.9237 56.9627 12.8894C55.5561 14.6845 58.0019 17.8862 59.1566 18.1066C58.2014 23.9956 52.2179 22.5365 53.3306 15.1568C55.2832 11.5457 56.7633 6.17109 56.5007 2.92742C56.4064 1.7832 55.5561 0.240083 53.6349 0.313565C49.9399 0.460528 49.541 8.76393 49.9715 14.6635C49.9504 14.5165 49.7404 15.4088 48.1658 15.8287C48.1135 13.2463 44.9013 12.0706 44.1244 12.8894C42.7492 14.359 44.4393 17.3718 46.0034 18.1066C45.0482 23.9956 39.0647 22.5365 40.1774 15.1568C42.1195 11.5457 43.6101 6.1606 43.3372 2.91691C43.2532 1.7832 42.4029 0.240083 40.4817 0.313565C36.7866 0.460528 36.4929 9.18384 36.9232 15.0834C35.7054 20.3005 31.6221 26.809 32.1573 13.7607C32.2098 12.8474 32.2624 12.501 31.811 12.1546C31.4646 11.8922 30.6878 12.0181 30.2678 12.0286C29.7534 12.0496 29.6171 12.354 29.512 12.8054C29.2497 13.9811 29.1971 15.1254 29.1551 16.6895C29.1342 17.4243 29.0711 17.7602 28.7877 18.7574C28.5042 19.7547 26.9087 21.5707 26.027 21.2663C24.8092 20.8464 25.2081 17.4138 25.439 15.0519C25.6281 13.1833 25.0192 12.354 23.4656 12.0496C22.5523 11.8607 21.9959 11.8922 21.0512 11.5877C20.1484 11.3043 19.949 9.60374 18.0384 10.1706C16.9887 10.4855 17.6605 12.7005 17.4086 14.3485C16.1699 22.442 13.5981 22.6625 12.4013 18.7364C17.776 5.55175 13.9445 0.355554 11.7085 0.355554C9.37811 0.355554 6.71178 1.96165 7.83498 12.2491C7.28913 12.0916 7.12118 12.0076 6.51232 12.0076C3.12168 11.9971 0.801758 14.7474 0.801758 18.1381C0.801758 21.5287 3.12168 24.2791 6.52283 24.2791C8.52782 24.2791 9.93446 23.3658 11.0052 21.9591C11.698 22.9564 12.5483 24.3001 14.1019 24.2371C18.7208 24.0586 20.0644 14.5795 20.2219 14.0441C20.7153 14.1176 21.1877 14.2646 21.639 14.3381C22.3949 14.4535 22.4578 14.7579 22.4368 15.5137C22.2374 21.9591 23.4236 24.2161 26.1215 24.2161C27.6225 24.2161 28.9662 22.7359 29.89 21.6862C30.5829 23.1138 31.6744 24.1741 33.1547 24.2161C36.7238 24.3001 38.099 18.6105 37.973 19.3558C37.8784 19.9436 39.1276 24.1741 42.8123 24.1951C47.368 24.2161 48.2183 19.2088 48.3129 18.369C48.3235 18.2011 48.3338 18.2221 48.3129 18.369C48.3129 18.3795 48.3129 18.4005 48.3129 18.4215C49.7615 18.1486 50.5067 17.3823 50.5067 17.3823C50.5067 17.3823 51.6719 24.2791 55.9655 24.2056C60.4269 24.1216 61.277 19.5972 61.3821 18.7154C61.3927 18.5055 61.403 18.5265 61.3821 18.7154C61.3821 18.726 61.3821 18.7364 61.3821 18.7364C63.1036 18.1066 63.5551 17.4873 63.5551 17.4873C63.5551 17.4873 64.4788 24.2476 69.0136 24.3105C73.0552 24.3631 74.5562 20.2166 74.5667 18.4845C75.2491 18.495 76.5088 18.0751 76.4774 18.0541C76.4774 18.0541 77.9575 23.9641 82.0934 24.2686C84.0355 24.4154 85.4944 23.1768 86.3239 22.61C88.2763 24.1951 94.7743 26.2106 98.8788 19.2508C99.4665 18.2641 98.2173 17.0779 97.997 16.9309ZM6.35486 21.9801C4.37087 21.9801 3.10068 20.1431 3.10068 18.1696C3.10068 16.1961 4.26589 14.359 6.2499 14.359C7.14218 14.359 7.63554 14.4535 8.33886 15.0624C8.46484 15.5557 8.82174 16.7 9.00021 17.2248C9.23114 17.9177 9.51458 18.516 9.78751 19.1563C9.37811 20.8149 8.07642 21.9801 6.35486 21.9801ZM11.1837 15.1149C11.0997 14.9784 11.1207 15.0624 11.0262 14.9364C10.6693 13.9496 9.96597 11.7452 9.88199 9.23633C9.78751 6.40205 10.2599 3.07437 11.656 3.07437C12.6008 3.07437 13.6085 9.81369 11.1837 15.1149ZM39.1171 12.1651C38.8967 10.4855 38.8862 2.97991 40.6814 3.18984C41.6786 3.58874 40.0514 10.664 39.1171 12.1651ZM52.2703 12.1651C52.0499 10.4855 52.0394 2.97991 53.8346 3.18984C54.8318 3.58874 53.2046 10.664 52.2703 12.1651ZM65.3186 12.2701C65.098 10.5905 65.0877 3.08486 66.8827 3.29481C67.8799 3.68323 66.2529 10.7689 65.3186 12.2701ZM79.721 2.73847C81.3691 2.5705 81.2956 9.76121 77.9995 14.2961C77.5689 12.6585 76.9183 3.30532 79.721 2.73847ZM86.6493 18.2221C86.1244 15.5453 87.4891 13.7922 88.8957 13.6032C89.3892 13.5298 90.1029 13.8447 90.2392 14.443C90.4704 15.5662 90.2078 17.2353 87.0482 19.3453C87.0587 19.3558 86.7647 18.8099 86.6493 18.2221ZM30.8138 9.97113C31.937 9.97113 32.8502 9.05786 32.8502 7.93466C32.8502 6.81144 31.937 5.89816 30.8138 5.89816C29.6906 5.89816 28.7771 6.81144 28.7771 7.93466C28.7771 9.05786 29.6906 9.97113 30.8138 9.97113Z" fill="black" fill-opacity="0.54"/>
</svg>
