<svg width="177" height="19" viewBox="0 0 177 19" fill="none" xmlns="http://www.w3.org/2000/svg">
<path id="Vector" d="M0.664062 0.362596C0.891827 1.2262 1.34669 2.01306 1.9814 2.64142C2.61611 3.26978 3.4075 3.71671 4.27334 3.93578H9.90898L10.1977 4.04922V18.2698H13.7142V4.06984L14.0339 3.95641H19.6747C20.5377 3.73144 21.3259 3.28253 21.9597 2.65508C22.5935 2.02763 23.0503 1.24391 23.2839 0.383221V0.347128H0.664062V0.362596ZM123.694 0.341972H120.188V18.311H136.244C137.005 18.0166 137.682 17.5402 138.216 16.9236C138.75 16.307 139.124 15.5689 139.307 14.7739H123.684L123.694 0.341972ZM96.7122 3.87907C98.5787 3.36346 100.146 1.90943 100.523 0.33166L80.8778 0.362596V10.9584H96.9494V14.6863H84.3375C83.376 14.9355 82.4784 15.3862 81.7042 16.0084C80.93 16.6306 80.2968 17.4102 79.8465 18.2956H100.414V7.43163H84.3478V3.87907H96.7122ZM156.611 18.3007H160.096V11.0718H172.77V18.3007H176.25V7.46257L156.611 7.44194V18.3007ZM44.6715 3.92032H58.0774C58.9556 3.70904 59.759 3.26076 60.4 2.62433C61.041 1.9879 61.495 1.18773 61.7125 0.311035L41.0364 0.311035C41.2561 1.18672 41.7108 1.98576 42.3514 2.62186C42.992 3.25795 43.7943 3.70694 44.6715 3.92032ZM44.6715 11.0203H58.0774C58.9551 10.808 59.7579 10.3593 60.3988 9.72306C61.0396 9.08679 61.4939 8.28719 61.7125 7.41101H41.0364C41.2571 8.28618 41.7121 9.08466 42.3526 9.7206C42.9931 10.3565 43.7948 10.8059 44.6715 11.0203ZM44.6715 18.311H58.0774C58.9551 18.0987 59.7579 17.6501 60.3988 17.0138C61.0396 16.3775 61.4939 15.5779 61.7125 14.7018H41.0364C41.2566 15.5772 41.7114 16.3759 42.352 17.012C42.9926 17.648 43.7945 18.0971 44.6715 18.311ZM159.71 3.93063H173.116C173.994 3.71966 174.799 3.27157 175.44 2.63517C176.082 1.99876 176.537 1.19843 176.756 0.321347H156.075C156.293 1.19753 156.747 1.99713 157.388 2.6334C158.029 3.26967 158.832 3.7183 159.71 3.93063Z" fill="black" fill-opacity="0.54"/>
</svg>
