<svg width="71" height="25" viewBox="0 0 71 25" fill="none" xmlns="http://www.w3.org/2000/svg">
<g id="Artwork">
<g id="Group">
<g id="Group_2">
<path id="Vector" d="M63.8972 10.0915C64.7363 10.0915 65.4165 9.41188 65.4165 8.57356C65.4165 7.73525 64.7363 7.05566 63.8972 7.05566C63.0581 7.05566 62.3779 7.73525 62.3779 8.57356C62.3779 9.41188 63.0581 10.0915 63.8972 10.0915Z" fill="black" fill-opacity="0.54"/>
<path id="Vector_2" d="M42.1975 15.046C42.9428 15.046 43.3728 14.4875 43.3442 13.9434C43.3298 13.657 43.3012 13.4708 43.2725 13.3276C42.8138 11.3515 41.2086 9.89087 39.3023 9.89087C37.0377 9.89087 35.2031 11.9386 35.2031 14.4589C35.2031 16.9792 37.0377 19.0269 39.3023 19.0269C40.7212 19.0269 41.7389 18.5114 42.4698 17.6952C42.8282 17.2942 42.7565 16.6785 42.3265 16.3777C41.9682 16.1343 41.5239 16.2202 41.1942 16.4923C40.8789 16.7644 40.2769 17.3085 39.3023 17.3085C38.1557 17.3085 37.181 16.3205 36.9661 15.0174H42.1975V15.046ZM39.288 11.6236C40.3199 11.6236 41.2086 12.4255 41.5382 13.5281H37.0377C37.3674 12.4112 38.256 11.6236 39.288 11.6236Z" fill="black" fill-opacity="0.54"/>
<path id="Vector_3" d="M35.2893 10.793C35.2893 10.3634 34.974 10.0197 34.5727 9.94813C33.3257 9.76197 32.1504 10.2202 31.4768 11.0651V10.9505C31.4768 10.4207 31.0468 10.0913 30.6168 10.0913C30.1438 10.0913 29.7568 10.478 29.7568 10.9505V17.9672C29.7568 18.4255 30.1008 18.8264 30.5595 18.8551C31.0611 18.8837 31.4768 18.4971 31.4768 17.9959V14.3729C31.4768 12.7691 32.6807 11.4517 34.3433 11.6379C34.4007 11.6379 34.458 11.6379 34.5153 11.6379C34.9453 11.6092 35.2893 11.2369 35.2893 10.793Z" fill="black" fill-opacity="0.54"/>
<path id="Vector_4" d="M64.757 11.7095C64.757 11.237 64.3701 10.8503 63.8971 10.8503C63.4241 10.8503 63.0371 11.237 63.0371 11.7095C63.0371 11.7382 63.0371 17.7238 63.0371 17.9959C63.0371 18.4685 63.4241 18.8551 63.8971 18.8551C64.3701 18.8551 64.757 18.4685 64.757 17.9959C64.757 17.7382 64.757 11.7525 64.757 11.7095Z" fill="black" fill-opacity="0.54"/>
<path id="Vector_5" d="M51.973 6.95538C51.973 6.48283 51.586 6.09619 51.113 6.09619C50.64 6.09619 50.253 6.48283 50.253 6.95538V10.7788C49.6654 10.1917 48.9344 9.90526 48.0601 9.90526C45.7955 9.90526 43.9609 11.953 43.9609 14.4733C43.9609 16.9936 45.7955 19.0413 48.0601 19.0413C48.9344 19.0413 49.6797 18.7406 50.2674 18.1535C50.339 18.5544 50.6974 18.8551 51.113 18.8551C51.586 18.8551 51.973 18.4685 51.973 17.996V6.95538ZM48.0745 17.3372C46.7558 17.3372 45.6952 16.0628 45.6952 14.4733C45.6952 12.8981 46.7558 11.6093 48.0745 11.6093C49.3931 11.6093 50.4537 12.8838 50.4537 14.4733C50.4537 16.0628 49.3787 17.3372 48.0745 17.3372Z" fill="black" fill-opacity="0.54"/>
<path id="Vector_6" d="M60.9446 6.95538C60.9446 6.48283 60.5577 6.09619 60.0847 6.09619C59.6117 6.09619 59.2247 6.48283 59.2247 6.95538V10.7788C58.6371 10.1917 57.9061 9.90526 57.0318 9.90526C54.7672 9.90526 52.9326 11.953 52.9326 14.4733C52.9326 16.9936 54.7672 19.0413 57.0318 19.0413C57.9061 19.0413 58.6514 18.7406 59.239 18.1535C59.3107 18.5544 59.669 18.8551 60.0847 18.8551C60.5577 18.8551 60.9446 18.4685 60.9446 17.996V6.95538ZM57.0318 17.3372C55.7132 17.3372 54.6526 16.0628 54.6526 14.4733C54.6526 12.8981 55.7132 11.6093 57.0318 11.6093C58.3504 11.6093 59.411 12.8838 59.411 14.4733C59.411 16.0628 58.3504 17.3372 57.0318 17.3372Z" fill="black" fill-opacity="0.54"/>
<path id="Vector_7" d="M69.1152 18.0101V11.6234H69.8748C70.2761 11.6234 70.6344 11.3227 70.6631 10.9074C70.6918 10.4635 70.3334 10.0912 69.9035 10.0912H69.1152V8.88835C69.1152 8.43011 68.7712 8.02916 68.3125 8.00052C67.8109 7.97188 67.3952 8.35851 67.3952 8.85971V10.1055H66.6786C66.2773 10.1055 65.9189 10.4062 65.8903 10.8215C65.8616 11.2654 66.2199 11.6378 66.6499 11.6378H67.3809V18.0244C67.3809 18.4969 67.7679 18.8836 68.2409 18.8836C68.7425 18.8549 69.1152 18.4826 69.1152 18.0101Z" fill="black" fill-opacity="0.54"/>
</g>
<g id="Group_3">
<path id="Vector_8" d="M12.9298 24.311C19.5633 24.311 24.9407 18.9385 24.9407 12.311C24.9407 5.68362 19.5633 0.311035 12.9298 0.311035C6.2964 0.311035 0.918945 5.68362 0.918945 12.311C0.918945 18.9385 6.2964 24.311 12.9298 24.311Z" fill="black" fill-opacity="0.54"/>
<path id="Vector_9" d="M20.9417 12.311C20.9417 11.3373 20.1534 10.564 19.1931 10.564C18.7201 10.564 18.2901 10.7502 17.9748 11.0509C16.7708 10.1917 15.1226 9.63321 13.288 9.56161L14.0906 5.80982L16.6992 6.36829C16.7278 7.027 17.2725 7.55683 17.9461 7.55683C18.6341 7.55683 19.1931 6.99836 19.1931 6.31101C19.1931 5.62366 18.6341 5.06519 17.9461 5.06519C17.4588 5.06519 17.0288 5.35158 16.8282 5.76686L13.9186 5.15111C13.8326 5.13679 13.7466 5.1511 13.6893 5.19406C13.6176 5.23702 13.5746 5.30862 13.5603 5.39454L12.6717 9.57593C10.8084 9.6332 9.13147 10.1917 7.91318 11.0652C7.59786 10.7645 7.16787 10.5783 6.69489 10.5783C5.72026 10.5783 4.94629 11.3659 4.94629 12.3253C4.94629 13.0413 5.37627 13.6428 5.97825 13.9148C5.94959 14.0867 5.93525 14.2585 5.93525 14.4447C5.93525 17.1368 9.07413 19.3277 12.944 19.3277C16.8138 19.3277 19.9527 17.1511 19.9527 14.4447C19.9527 14.2728 19.9384 14.0867 19.9097 13.9148C20.5117 13.6428 20.9417 13.027 20.9417 12.311ZM8.93081 13.5568C8.93081 12.8695 9.48979 12.311 10.1778 12.311C10.8657 12.311 11.4247 12.8695 11.4247 13.5568C11.4247 14.2442 10.8657 14.8027 10.1778 14.8027C9.48979 14.817 8.93081 14.2442 8.93081 13.5568ZM15.9109 16.8647C15.0509 17.7239 13.417 17.7812 12.944 17.7812C12.4567 17.7812 10.8227 17.7096 9.9771 16.8647C9.84811 16.7358 9.84811 16.5354 9.9771 16.4065C10.1061 16.2776 10.3068 16.2776 10.4358 16.4065C10.9804 16.9506 12.127 17.1368 12.944 17.1368C13.761 17.1368 14.9219 16.9506 15.4522 16.4065C15.5812 16.2776 15.7819 16.2776 15.9109 16.4065C16.0255 16.5354 16.0255 16.7358 15.9109 16.8647ZM15.6816 14.817C14.9936 14.817 14.4346 14.2585 14.4346 13.5712C14.4346 12.8838 14.9936 12.3253 15.6816 12.3253C16.3695 12.3253 16.9285 12.8838 16.9285 13.5712C16.9285 14.2442 16.3695 14.817 15.6816 14.817Z" fill="white"/>
</g>
</g>
</g>
</svg>
