<svg width="77" height="25" viewBox="0 0 77 25" fill="none" xmlns="http://www.w3.org/2000/svg">
<g id="Group">
<path id="Vector" d="M9.61549 8.87467V11.4383H15.8023C15.638 12.8565 15.1453 13.9474 14.3788 14.6565C13.5028 15.5292 12.0793 16.511 9.61549 16.511C5.83772 16.511 2.8812 13.4565 2.8812 9.69285C2.8812 5.92922 5.78297 2.87467 9.61549 2.87467C11.6413 2.87467 13.1743 3.69285 14.2693 4.72922L16.076 2.92922C14.543 1.45649 12.4625 0.311035 9.61549 0.311035C4.41421 0.311035 0.0341797 4.51104 0.0341797 9.69285C0.0341797 14.8747 4.41421 19.0747 9.61549 19.0747C12.4078 19.0747 14.543 18.1474 16.1855 16.4565C17.8828 14.7656 18.4303 12.3656 18.4303 10.4565C18.4303 9.85649 18.3755 9.31104 18.3208 8.87467H9.61549Z" fill="black" fill-opacity="0.54"/>
<path id="Vector_2" d="M26.0954 6.74731C22.7556 6.74731 19.9634 9.31095 19.9634 12.8019C19.9634 16.2928 22.7009 18.8564 26.0954 18.8564C29.4899 18.8564 32.2275 16.3473 32.2275 12.8564C32.2275 9.31095 29.4899 6.74731 26.0954 6.74731ZM26.0954 16.511C24.2339 16.511 22.6461 14.9837 22.6461 12.8564C22.6461 10.6746 24.2339 9.20186 26.0954 9.20186C27.9569 9.20186 29.5447 10.6746 29.5447 12.8564C29.5447 14.9837 27.9569 16.511 26.0954 16.511Z" fill="black" fill-opacity="0.54"/>
<path id="Vector_3" d="M56.0436 8.11095H55.9341C55.3318 7.40186 54.1821 6.74731 52.7038 6.74731C49.6378 6.74731 47.0098 9.3655 47.0098 12.8019C47.0098 16.1837 49.6378 18.8564 52.7038 18.8564C54.1821 18.8564 55.3318 18.2019 55.9341 17.4928H56.0436V18.3655C56.0436 20.6564 54.7843 21.911 52.8133 21.911C51.1708 21.911 50.1853 20.7655 49.7473 19.7291L47.4478 20.711C48.1048 22.2928 49.9115 24.311 52.8681 24.311C55.9888 24.311 58.6716 22.4564 58.6716 17.9837V7.07459H56.1531V8.11095H56.0436ZM52.9776 16.511C51.116 16.511 49.7473 14.9291 49.7473 12.8564C49.7473 10.7291 51.1708 9.20186 52.9776 9.20186C54.7843 9.20186 56.2078 10.7837 56.2078 12.911C56.2626 14.9837 54.8391 16.511 52.9776 16.511Z" fill="black" fill-opacity="0.54"/>
<path id="Vector_4" d="M39.7282 6.74731C36.3885 6.74731 33.5962 9.31095 33.5962 12.8019C33.5962 16.2928 36.3337 18.8564 39.7282 18.8564C43.1228 18.8564 45.8603 16.3473 45.8603 12.8564C45.8603 9.31095 43.1228 6.74731 39.7282 6.74731ZM39.7282 16.511C37.8667 16.511 36.279 14.9837 36.279 12.8564C36.279 10.6746 37.8667 9.20186 39.7282 9.20186C41.5897 9.20186 43.1775 10.6746 43.1775 12.8564C43.1775 14.9837 41.5897 16.511 39.7282 16.511Z" fill="black" fill-opacity="0.54"/>
<path id="Vector_5" d="M60.6978 0.58374H63.3258V18.911H60.6978V0.58374Z" fill="black" fill-opacity="0.54"/>
<path id="Vector_6" d="M71.4288 16.511C70.06 16.511 69.1293 15.9109 68.4723 14.6564L76.6301 11.3291L76.3563 10.62C75.8636 9.2564 74.2758 6.74731 71.155 6.74731C68.0343 6.74731 65.4062 9.20186 65.4062 12.8019C65.4062 16.1837 67.9795 18.8564 71.4288 18.8564C74.2211 18.8564 75.8088 17.1655 76.5206 16.1837L74.4401 14.82C73.7283 15.8564 72.7975 16.511 71.4288 16.511ZM71.2645 9.03822C72.3595 9.03822 73.2903 9.58368 73.5641 10.3473L68.089 12.6382C68.0343 10.1291 69.8958 9.03822 71.2645 9.03822Z" fill="black" fill-opacity="0.54"/>
</g>
</svg>
