<svg width="24" height="24" viewBox="0 0 19 20" fill="none" xmlns="http://www.w3.org/2000/svg">
<path fill-rule="evenodd" clip-rule="evenodd" d="M0.849609 10.3105C0.849609 6.71541 0.849609 4.91784 1.7063 3.6231C2.08886 3.04494 2.584 2.54979 3.16216 2.16724C4.4569 1.31055 6.25447 1.31055 9.84961 1.31055C13.4447 1.31055 15.2423 1.31055 16.5371 2.16724C17.1152 2.54979 17.6104 3.04494 17.9929 3.6231C18.8496 4.91784 18.8496 6.71541 18.8496 10.3105C18.8496 13.9057 18.8496 15.7033 17.9929 16.998C17.6104 17.5762 17.1152 18.0713 16.5371 18.4539C15.2423 19.3105 13.4447 19.3105 9.84961 19.3105C6.25447 19.3105 4.4569 19.3105 3.16216 18.4539C2.584 18.0713 2.08886 17.5762 1.7063 16.998C0.849609 15.7033 0.849609 13.9057 0.849609 10.3105ZM14.5089 10.3108C14.5089 12.8841 12.4228 14.9702 9.84945 14.9702C7.27613 14.9702 5.19004 12.8841 5.19004 10.3108C5.19004 7.73745 7.27613 5.65137 9.84945 5.65137C12.4228 5.65137 14.5089 7.73745 14.5089 10.3108ZM9.84945 13.3938C11.5521 13.3938 12.9325 12.0135 12.9325 10.3108C12.9325 8.60808 11.5521 7.22777 9.84945 7.22777C8.14675 7.22777 6.76645 8.60808 6.76645 10.3108C6.76645 12.0135 8.14675 13.3938 9.84945 13.3938ZM14.6929 6.5121C15.2975 6.5121 15.7877 6.02193 15.7877 5.41727C15.7877 4.81262 15.2975 4.32245 14.6929 4.32245C14.0882 4.32245 13.5981 4.81262 13.5981 5.41727C13.5981 6.02193 14.0882 6.5121 14.6929 6.5121Z" fill="#009688"/>
</svg>
