<svg width="29" height="30" viewBox="0 0 29 30" fill="none" xmlns="http://www.w3.org/2000/svg">
<path d="M21.8214 3.99151L21.8214 3.99147L21.8161 3.98837C20.2205 3.06514 18.5146 2.56325 16.7049 2.48551V1.55612C18.6948 1.63404 20.5494 2.17982 22.276 3.19493L22.2768 3.1954C24.09 4.25688 25.5242 5.69174 26.5851 7.50595L26.5856 7.50676C27.6003 9.23436 28.1458 11.0901 28.2237 13.0812H27.2953C27.2176 11.2707 26.716 9.56398 25.7932 7.96754L25.7933 7.96753L25.7901 7.96221C24.8039 6.30366 23.4792 4.97827 21.8214 3.99151ZM7.31134 4.81824L11.2444 8.84138L11.2435 8.84241L11.3338 8.93281L11.341 8.9257C11.6644 9.20348 11.8199 9.54763 11.8199 9.99554C11.8199 10.4659 11.6611 10.8639 11.3295 11.2132L9.40635 13.1374L9.16715 13.3767L9.30038 13.6877C9.98715 15.291 10.9173 16.6634 12.0932 17.7979L12.0966 17.8012C13.2625 18.9052 14.6324 19.828 16.2016 20.5717L16.5228 20.7239L16.7722 20.4705L18.6667 18.5449C18.6671 18.5445 18.6675 18.544 18.6679 18.5436C18.9694 18.2426 19.341 18.0888 19.8189 18.0888C20.2973 18.0888 20.6691 18.2429 20.9707 18.5444C20.9708 18.5446 20.971 18.5447 20.9711 18.5449L24.915 22.5209L24.9164 22.5223C25.218 22.8241 25.3723 23.1964 25.3723 23.6754C25.3723 24.1292 25.2215 24.493 24.9164 24.7984L21.8873 27.8289C21.4944 28.1672 21.0459 28.3859 20.5339 28.4883L20.5307 28.489C20.0398 28.5906 19.5488 28.5581 19.0484 28.3854L18.9691 28.3581H18.95C14.6887 26.676 11.1348 24.3933 8.27773 21.5152L8.27457 21.5121C6.47979 19.7361 4.93077 17.7327 3.62743 15.5004C2.69684 13.8758 1.95729 12.296 1.40647 10.7608L1.40655 10.7607L1.40338 10.7524C1.21906 10.2662 1.18393 9.76606 1.30144 9.23926C1.4362 8.72266 1.70898 8.29224 2.13092 7.93763L2.11878 7.92144L5.16111 4.81846C5.46571 4.56536 5.81677 4.43904 6.23636 4.43904C6.65582 4.43904 7.00679 4.56529 7.31134 4.81824ZM6.80479 5.60844L6.77797 5.58099L6.74727 5.55795C6.63294 5.47216 6.45593 5.36748 6.23636 5.36748C6.01468 5.36748 5.81956 5.45667 5.6719 5.60441L5.67188 5.60439L5.66838 5.60796L2.69875 8.63913C2.45159 8.86231 2.30298 9.15869 2.22653 9.48705C2.15692 9.76841 2.15088 10.0562 2.24284 10.3291V10.351L2.27048 10.4307C2.78468 11.9123 3.50207 13.4384 4.41925 15.0086L4.42008 15.01C5.70531 17.1939 7.20648 19.1461 8.92401 20.8645C11.7101 23.6722 15.1849 25.8775 19.3371 27.4862L19.3456 27.4895L19.3541 27.4925C20.0561 27.7356 20.7229 27.5872 21.2902 27.097L21.3031 27.0859L21.3152 27.0739L24.3269 24.0909L24.3286 24.0891L24.3738 24.0439L24.3851 24.0326L24.3879 24.0298L24.3886 24.0291L24.3888 24.0289L24.3888 24.0289L24.3889 24.0289L24.0352 23.6754L24.3889 24.0289L24.5352 23.8824V23.6754C24.5352 23.5151 24.4629 23.4004 24.4362 23.3605C24.4007 23.3071 24.3605 23.2634 24.3286 23.2315L20.2629 19.1637C20.2311 19.1319 20.1873 19.0916 20.134 19.056C20.094 19.0294 19.9793 18.9569 19.8189 18.9569C19.6585 18.9569 19.5438 19.0294 19.5038 19.056C19.4505 19.0916 19.4067 19.1319 19.3749 19.1637L16.6977 21.8423L16.4102 21.7129L16.3988 21.7078L16.3872 21.7032C15.9575 21.535 15.4192 21.267 14.768 20.8918C13.4737 20.1463 12.3743 19.3272 11.4651 18.4368L11.459 18.4308L11.4527 18.4251C10.7855 17.8148 10.17 17.0755 9.60812 16.2031L9.60814 16.2031L9.60586 16.1997C9.19712 15.5765 8.8374 14.9345 8.52647 14.2735C8.52628 14.2732 8.5261 14.2728 8.52592 14.2724L8.14581 13.4533L8.0474 13.1719L10.684 10.5618L10.6858 10.5599C10.8658 10.3799 10.9416 10.1309 10.8775 9.87433L10.8447 9.74296L10.7501 9.6461L6.80479 5.60844ZM19.9261 11.4174L19.926 11.4174L19.9312 11.4261C20.2403 11.9463 20.4279 12.4965 20.4953 13.0812H19.5628C19.4636 12.3554 19.1433 11.7159 18.6065 11.1788C18.0697 10.6417 17.4305 10.3212 16.7049 10.2219V9.28849C17.2891 9.35588 17.8388 9.54353 18.3586 9.85275L18.3586 9.85283L18.3673 9.85782C19.0317 10.2351 19.549 10.7526 19.9261 11.4174ZM16.7049 6.34771V5.41756C17.992 5.49179 19.194 5.85518 20.3173 6.5088C21.5497 7.24921 22.5334 8.23336 23.2734 9.46643C23.9268 10.5904 24.29 11.7933 24.3642 13.0812H23.435C23.3627 11.9609 23.0446 10.9165 22.4796 9.95489C21.8339 8.83566 20.9484 7.94979 19.8297 7.30365C18.8686 6.73837 17.8247 6.42013 16.7049 6.34771Z" stroke="#009688"/>
</svg>
