<svg width="20" height="20" viewBox="0 0 19 19" fill="none" xmlns="http://www.w3.org/2000/svg">
<path d="M0.849609 3.23035C0.849609 2.65314 1.05232 2.17695 1.45772 1.80178C1.86312 1.4266 2.39016 1.23901 3.0388 1.23901C3.67587 1.23901 4.1913 1.42371 4.58513 1.79313C4.99053 2.17408 5.19324 2.67046 5.19324 3.2823C5.19324 3.83642 4.99633 4.29816 4.6025 4.66758C4.19711 5.04854 3.66428 5.23901 3.00405 5.23901H2.98668C2.3496 5.23901 1.83417 5.04854 1.44034 4.66758C1.04651 4.28663 0.849609 3.80755 0.849609 3.23035ZM1.07548 18.3819V6.81477H4.93262V18.3819H1.07548ZM7.06969 18.3819H10.9268V11.923C10.9268 11.5189 10.9732 11.2073 11.0658 10.9879C11.228 10.5954 11.4741 10.2635 11.8042 9.99226C12.1344 9.72097 12.5484 9.58533 13.0465 9.58533C14.3438 9.58533 14.9925 10.4569 14.9925 12.2V18.3819H18.8496V11.7498C18.8496 10.0413 18.4442 8.7455 17.6334 7.86239C16.8226 6.97927 15.7512 6.53771 14.4191 6.53771C12.9249 6.53771 11.7608 7.17841 10.9268 8.45979V8.49442H10.9095L10.9268 8.45979V6.81477H7.06969C7.09285 7.18417 7.10444 8.33279 7.10444 10.2607C7.10444 12.1885 7.09285 14.8956 7.06969 18.3819Z" fill="#009688"/>
</svg>
