<svg width="24" height="20" viewBox="0 0 19 16" fill="none" xmlns="http://www.w3.org/2000/svg">
<path d="M12.8767 1.01179V1.00854H13.7207L14.029 1.07014C14.2346 1.11012 14.4213 1.16252 14.589 1.22736C14.7567 1.29219 14.9191 1.36784 15.0759 1.45428C15.2328 1.54072 15.3751 1.62879 15.5028 1.71847C15.6294 1.80708 15.743 1.90109 15.8437 2.0005C15.9432 2.10099 16.0985 2.12693 16.3095 2.0783C16.5205 2.02967 16.7477 1.96213 16.9912 1.87569C17.2346 1.78926 17.4754 1.692 17.7135 1.58394C17.9515 1.47588 18.0965 1.40727 18.1485 1.3781C18.1993 1.34785 18.2264 1.33164 18.2296 1.32947L18.2328 1.32461L18.2491 1.3165L18.2653 1.3084L18.2815 1.3003L18.2978 1.29219L18.301 1.28733L18.3059 1.28409L18.3108 1.28085L18.314 1.27598L18.3302 1.27112L18.3465 1.26788L18.3432 1.29219L18.3383 1.3165L18.3302 1.34082L18.3221 1.36513L18.314 1.38134L18.3059 1.39755L18.2978 1.42186C18.2924 1.43807 18.287 1.45967 18.2815 1.48669C18.2761 1.51371 18.2247 1.62176 18.1273 1.81086C18.03 1.99996 17.9082 2.19176 17.7621 2.38626C17.6161 2.58076 17.4851 2.72771 17.3694 2.82713C17.2525 2.92762 17.1751 2.99785 17.1373 3.03784C17.0994 3.07889 17.0534 3.11671 16.9993 3.1513L16.9181 3.20478L16.9019 3.21289L16.8857 3.22099L16.8824 3.22586L16.8776 3.2291L16.8727 3.23234L16.8694 3.2372L16.8532 3.24531L16.837 3.25341L16.8338 3.25827L16.8289 3.26151L16.824 3.26476L16.8208 3.26962L16.8175 3.27448L16.8126 3.27772L16.8078 3.28096L16.8045 3.28583H16.8857L17.3401 3.18858C17.6431 3.12374 17.9326 3.04541 18.2085 2.95355L18.6467 2.80768L18.6954 2.79147L18.7198 2.78337L18.736 2.77526L18.7522 2.76716L18.7685 2.75905L18.7847 2.75095L18.8171 2.74609L18.8496 2.74284V2.77526L18.8415 2.7785L18.8334 2.78337L18.8301 2.78823L18.8253 2.79147L18.8204 2.79471L18.8171 2.79957L18.8139 2.80444L18.809 2.80768L18.8042 2.81092L18.8009 2.81578L18.7977 2.82064L18.7928 2.82389L18.7847 2.8401L18.7766 2.8563L18.7717 2.85955C18.7695 2.86279 18.7008 2.95462 18.5656 3.13509C18.4303 3.31662 18.3573 3.40846 18.3465 3.41063C18.3356 3.41387 18.3205 3.43008 18.301 3.45926C18.2826 3.4895 18.1679 3.60999 17.9569 3.8207C17.7459 4.03141 17.5393 4.21888 17.3369 4.38314C17.1335 4.54846 17.0307 4.7516 17.0285 4.99257C17.0253 5.23246 17.0128 5.50369 16.9912 5.80623C16.9695 6.1088 16.929 6.43566 16.8694 6.78684C16.8099 7.13803 16.718 7.53514 16.5935 7.97816C16.4691 8.42119 16.3176 8.85341 16.1391 9.27483C15.9605 9.69625 15.7739 10.0744 15.5791 10.4094C15.3843 10.7444 15.2058 11.028 15.0435 11.2604C14.8812 11.4927 14.7162 11.7115 14.5484 11.9168C14.3807 12.1221 14.1687 12.3534 13.9122 12.6105C13.6547 12.8666 13.514 13.0071 13.4902 13.0319C13.4653 13.0557 13.3593 13.1443 13.1721 13.2978C12.986 13.4523 12.7858 13.6068 12.5715 13.7613C12.3584 13.9148 12.1625 14.0428 11.984 14.1455C11.8054 14.2481 11.5901 14.3653 11.338 14.4972C11.087 14.6301 10.8153 14.7533 10.5232 14.8667C10.231 14.9802 9.92265 15.0855 9.59803 15.1828C9.27341 15.28 8.95962 15.3557 8.65664 15.4097C8.35368 15.4637 8.01012 15.5097 7.62598 15.5475L7.04979 15.6042V15.6123H5.99479V15.6042L5.85682 15.5961C5.76486 15.5907 5.68911 15.5853 5.62959 15.5799C5.57009 15.5745 5.34555 15.5448 4.95601 15.4908C4.56647 15.4367 4.2608 15.3827 4.03897 15.3287C3.81716 15.2747 3.48712 15.172 3.04889 15.0207C2.61066 14.8694 2.23572 14.7165 1.92409 14.562C1.61355 14.4086 1.41878 14.3113 1.33978 14.2703C1.26187 14.2303 1.17423 14.1806 1.07684 14.1211L0.930764 14.032L0.927534 14.0271L0.922648 14.0239L0.917779 14.0207L0.914533 14.0158L0.898302 14.0077L0.882071 13.9996L0.878841 13.9947L0.873956 13.9915L0.869086 13.9882L0.86584 13.9834L0.86261 13.9785L0.857725 13.9753H0.849609V13.9429L0.86584 13.9461L0.882071 13.951L0.95511 13.9591C1.0038 13.9645 1.13636 13.9726 1.35277 13.9834C1.56919 13.9942 1.79911 13.9942 2.04258 13.9834C2.28604 13.9726 2.53492 13.9483 2.78919 13.9104C3.04348 13.8726 3.34375 13.8078 3.69001 13.7159C4.03627 13.6241 4.3544 13.515 4.6444 13.3885C4.9333 13.261 5.13888 13.1659 5.26117 13.1033C5.38235 13.0417 5.56738 12.9271 5.81625 12.7596L6.18956 12.5084L6.1928 12.5035L6.19767 12.5003L6.20256 12.4971L6.20579 12.4922L6.20903 12.4873L6.2139 12.4841L6.21879 12.4809L6.22202 12.476L6.23825 12.4711L6.25448 12.4679L6.25772 12.4517L6.26259 12.4355L6.26748 12.4322L6.27071 12.4274L6.14086 12.4193C6.0543 12.4139 5.97044 12.4085 5.88928 12.4031C5.80813 12.3977 5.68099 12.3733 5.50786 12.3301C5.33474 12.2869 5.14809 12.2221 4.9479 12.1356C4.74772 12.0492 4.55295 11.9465 4.36359 11.8277C4.17424 11.7088 4.03735 11.6099 3.95295 11.531C3.86963 11.4532 3.76142 11.343 3.62833 11.2004C3.49632 11.0567 3.38162 10.9092 3.28424 10.7579C3.18685 10.6066 3.0938 10.4321 3.00508 10.2344L2.87035 9.93938L2.86223 9.91507L2.85412 9.89075L2.84925 9.87454L2.846 9.85834L2.87035 9.86158L2.8947 9.86644L3.07323 9.89075C3.19227 9.90696 3.37893 9.91236 3.6332 9.90696C3.88749 9.90156 4.06332 9.89075 4.1607 9.87454C4.25809 9.85834 4.3176 9.84752 4.33924 9.84213L4.3717 9.83402L4.41228 9.82592L4.45286 9.81781L4.4561 9.81295L4.46097 9.80971L4.46586 9.80647L4.46909 9.80161L4.43662 9.7935L4.40416 9.7854L4.3717 9.77729L4.33924 9.76919L4.30678 9.76109C4.28514 9.75569 4.24728 9.74488 4.19316 9.72867C4.13906 9.71246 3.99299 9.65302 3.75493 9.55038C3.51689 9.44773 3.32752 9.34777 3.18685 9.25052C3.04583 9.15299 2.91137 9.04632 2.78433 8.93121C2.65772 8.81451 2.51869 8.66431 2.36719 8.48062C2.21571 8.29693 2.08046 8.08352 1.96142 7.84039C1.8424 7.59726 1.75313 7.36495 1.69361 7.14343C1.63433 6.92321 1.59522 6.69807 1.57677 6.47078L1.54754 6.1304L1.56377 6.13364L1.58 6.13851L1.59623 6.14661L1.61246 6.15471L1.62869 6.16282L1.64492 6.17092L1.8965 6.28438C2.06423 6.36003 2.27252 6.42486 2.52139 6.47888C2.77027 6.53291 2.91904 6.56263 2.96773 6.56803L3.04077 6.57613H3.18685L3.18362 6.57127L3.17873 6.56803L3.17387 6.56479L3.17062 6.55992L3.16739 6.55506L3.1625 6.55182L3.15763 6.54858L3.15439 6.54372L3.13816 6.53561L3.12193 6.52751L3.1187 6.52265L3.11381 6.5194L3.10894 6.51616L3.1057 6.5113L3.08947 6.5032L3.07323 6.49509L3.07 6.49023C3.06676 6.48806 3.02022 6.45348 2.9304 6.38649C2.84167 6.31842 2.74862 6.23036 2.65123 6.1223C2.55385 6.01424 2.45646 5.90078 2.35908 5.78192C2.26151 5.66279 2.17461 5.53534 2.09938 5.40102C2.02365 5.26596 1.94357 5.09413 1.85917 4.8856C1.77585 4.67813 1.71255 4.46904 1.66927 4.25833C1.626 4.04762 1.60165 3.83962 1.59623 3.63431C1.59082 3.429 1.59623 3.25341 1.61246 3.10753C1.62869 2.96166 1.66115 2.79687 1.70984 2.61318C1.75854 2.42949 1.82888 2.23499 1.92084 2.02967L2.05881 1.72171L2.06692 1.6974L2.07504 1.67309L2.07992 1.66985L2.08315 1.66499L2.0864 1.66012L2.09127 1.65688L2.09615 1.66012L2.09938 1.66499L2.10263 1.66985L2.1075 1.67309L2.11238 1.67633L2.11561 1.68119L2.11886 1.68606L2.12373 1.6893L2.13185 1.70551L2.13996 1.72171L2.14485 1.72496L2.14808 1.72982L2.36719 1.97295C2.51327 2.13503 2.6864 2.31603 2.88658 2.51593C3.08677 2.71583 3.19768 2.81956 3.21931 2.82713C3.24096 2.83577 3.268 2.86062 3.30047 2.90169C3.33293 2.94167 3.44114 3.0373 3.62508 3.18858C3.80904 3.33985 4.0498 3.51545 4.34736 3.71535C4.64493 3.91525 4.97495 4.11246 5.33744 4.30696C5.69994 4.50146 6.08948 4.67704 6.50606 4.83373C6.92265 4.99042 7.21481 5.09306 7.38252 5.14169C7.55025 5.19031 7.83699 5.25244 8.24276 5.32809C8.64853 5.40373 8.95422 5.45236 9.1598 5.47396C9.36539 5.49557 9.50607 5.508 9.5818 5.51124L9.69542 5.51448L9.69219 5.49017L9.6873 5.46586L9.65484 5.26325C9.6332 5.12819 9.62238 4.93908 9.62238 4.69596C9.62238 4.45283 9.64132 4.22862 9.67919 4.02331C9.71707 3.818 9.77388 3.60999 9.84961 3.39929C9.92536 3.18858 9.99949 3.01946 10.072 2.89196C10.1456 2.76554 10.2419 2.62128 10.3609 2.4592C10.4799 2.29711 10.6341 2.12963 10.8235 1.95674C11.0128 1.78384 11.2292 1.62986 11.4727 1.4948C11.7162 1.35973 11.9407 1.25707 12.1463 1.18684C12.3519 1.11661 12.525 1.07067 12.6657 1.04907C12.8063 1.02746 12.8767 1.01503 12.8767 1.01179Z" fill="#009688"/>
</svg>
